# xmcd
#
# Track frame offsets:
#	150
#	16362
#	32466
#	61567
#	72885
#	86915
#	106070
#	117260
#	146587
#	157998
#	174240
#	191813
#
# Disc length: 2860 seconds
#
# Revision: 0
# Processed by: cddbd v1.5.2PL0 Copyright (c) Steve Scherf et al.
# Submitted via: EasyCDDAExtractor 16.0.6.1
#
DISCID=920b2a0c
DTITLE=Συλλογικός δίσκος - Οι πατρίδες της Ελλάδας 4-Αιγαίο
DYEAR=2004
DGENRE=Παραδοσιακή
TTITLE0=Χούλης Μανώλης - Τζιβαέρι [παραδ. Κάλυμνος]
TTITLE1=Χούλης Μανώλης - Παριανός [παραδ. Κάλυμνος]
TTITLE2=Άνευ ερμηνευτού - Ισσός σούστα [παραδ. Κάλυμνος, βιολί Μιχ. Κάππας]
TTITLE3=Άνευ ερμηνευτού - Σούστα Πάτμου [παραδ. Πάτμος, τσαμπούνα Θεολόγης Γρύ
TTITLE3=λλης]
TTITLE4=Κουρτίδου Νίτσα - Χρόνια στις θάλασσες γυρνώ [παραδ. Ρόδος]
TTITLE5=Κουρτίδου Νίτσα - Γαϊτάνι [παραδ. Ρόδος]
TTITLE6=Άνευ ερμηνευτού - Σούστα Ρόδου [παραδ. Ρόδος]
TTITLE7=Παραγιός Γιώργος - Πάρε Φρατζή τη λύρα σου [παραδ. Νίσυρος]
TTITLE8=Καντάρη Πελαγία-Τηγανούρια Ζωή - Σταυρωτός σύρτης που σέρνει το χορό [
TTITLE8=παραδ. Σαμοθράκη]
TTITLE9=Καντάρη Πελαγία - Γιαρ-γιαρ η λυγαριά [παραδ. Σαμοθράκη]
TTITLE10=Κοτσιναδέλλης Θανάσης - Κεχαγιάδικος [παραδ. Λήμνος]
TTITLE11=Μάνια Παρασκευή - Την νύφη μας την είχαμε [παραδ. Σαμοθράκη]
EXTD=
EXTT0=
EXTT1=
EXTT2=
EXTT3=
EXTT4=
EXTT5=
EXTT6=
EXTT7=
EXTT8=
EXTT9=
EXTT10=
EXTT11=
PLAYORDER=
